<?xml version="1.0" standalone="no"?>
<!DOCTYPE svg PUBLIC "-//W3C//DTD SVG 20010904//EN"
 "http://www.w3.org/TR/2001/REC-SVG-20010904/DTD/svg10.dtd">
<svg version="1.0" xmlns="http://www.w3.org/2000/svg"
 width="640.000000pt" height="640.000000pt" viewBox="0 0 640.000000 640.000000"
 preserveAspectRatio="xMidYMid meet">

<g transform="translate(0.000000,640.000000) scale(0.100000,-0.100000)"
fill="#000000" stroke="none">
<path d="M0 5746 c0 -426 3 -657 10 -661 6 -3 10 -15 10 -26 0 -11 5 -17 10
-14 6 3 10 16 10 28 0 17 3 19 9 8 7 -11 10 -9 15 7 4 11 6 24 4 28 -6 24 15
136 26 140 8 3 16 23 20 45 3 21 11 39 17 39 5 0 8 -4 5 -9 -3 -4 1 -17 9 -27
8 -10 15 -29 15 -42 0 -38 20 -14 21 26 0 30 2 33 9 17 5 -11 9 -35 9 -54 1
-19 4 -32 7 -28 3 3 10 122 15 264 13 372 11 360 68 420 42 44 65 45 844 41
l739 -3 48 -53 c57 -62 60 -79 60 -317 0 -186 18 -647 29 -720 6 -43 8 -33 15
75 5 87 12 129 22 140 12 12 14 12 14 -3 0 -10 -4 -15 -10 -12 -5 3 -10 1 -10
-4 0 -6 5 -11 10 -11 6 0 10 -12 11 -27 0 -16 3 -22 6 -15 2 6 9 10 14 6 5 -3
9 0 9 5 0 20 52 7 60 -15 5 -12 14 -24 21 -26 7 -2 12 -18 11 -36 0 -18 4 -32
9 -32 5 0 10 14 10 30 2 52 4 55 27 58 12 2 22 2 22 0 0 -2 9 -28 19 -58 19
-57 40 -71 79 -54 14 6 13 8 -7 13 -13 4 -29 15 -35 26 -6 11 -14 22 -17 25
-3 3 -9 18 -13 34 -4 16 -15 30 -27 33 -14 4 -19 12 -16 24 3 11 1 17 -4 14
-10 -7 -69 22 -69 34 0 5 7 11 15 15 8 3 15 15 15 27 0 21 24 22 26 1 1 -7 2
-16 3 -22 0 -5 5 -10 11 -10 5 0 6 8 3 18 -6 15 -5 15 10 3 21 -17 22 -31 1
-31 -8 0 -13 -4 -10 -9 3 -5 15 -7 26 -4 23 6 38 -20 22 -40 -7 -8 -6 -18 5
-32 15 -19 15 -19 9 8 -4 16 -2 27 4 27 5 0 10 -7 10 -15 0 -8 6 -12 14 -9 11
4 14 -1 12 -20 -2 -14 1 -26 5 -26 5 0 9 4 9 9 0 5 17 7 38 4 32 -4 38 -1 47
18 6 15 19 24 37 26 21 1 29 -5 38 -28 8 -18 18 -28 26 -25 11 4 11 2 1 -15
-10 -16 -9 -21 3 -29 8 -5 12 -12 9 -15 -8 -8 -39 5 -39 16 0 18 -5 24 -28 36
-20 11 -26 9 -48 -12 -32 -32 -30 -39 6 -20 36 19 40 19 40 1 0 -8 7 -16 15
-20 8 -3 15 -16 15 -29 0 -23 -3 -24 -55 -20 -30 2 -56 0 -56 -4 -6 -33 -5
-53 1 -53 4 0 10 6 13 14 6 16 63 26 76 13 8 -8 49 5 103 34 10 5 36 9 58 9
22 0 40 5 40 10 0 15 17 12 24 -5 8 -21 -3 -45 -20 -45 -8 0 -14 -4 -14 -10 0
-5 -6 -10 -12 -10 -23 -1 -68 -48 -62 -64 8 -20 22 -20 43 -2 43 37 116 68
153 64 21 -2 40 1 42 7 2 5 5 2 5 -8 1 -10 5 -16 9 -13 10 6 32 -30 36 -59 2
-11 0 -34 -5 -52 -4 -18 -3 -33 2 -33 5 0 9 12 10 28 l1 27 11 -32 c7 -17 15
-35 19 -39 4 -4 3 -13 -3 -21 -8 -9 -8 -13 0 -13 14 0 38 -58 47 -116 5 -33 3
-45 -4 -40 -6 4 -8 14 -5 23 5 13 2 15 -11 10 -10 -4 -15 -3 -11 3 3 6 -1 10
-10 10 -12 0 -15 5 -11 16 4 11 2 15 -7 11 -8 -3 -21 3 -30 14 -9 10 -13 19
-9 19 4 1 -6 8 -22 16 -26 15 -30 14 -45 -1 -9 -10 -11 -15 -4 -11 9 5 10 -4
6 -31 -6 -34 -5 -37 10 -25 13 11 18 10 34 -7 10 -11 28 -32 41 -45 26 -30 29
-48 5 -39 -12 5 -14 3 -8 -8 6 -11 5 -12 -6 -1 -19 18 -47 15 -71 -8 -24 -22
-39 -12 -31 21 3 10 0 19 -6 19 -12 0 -14 -14 -11 -72 1 -29 -2 -38 -15 -38
-12 0 -14 -4 -5 -19 13 -25 13 -61 0 -61 -5 0 -10 -25 -10 -56 0 -47 3 -57 20
-61 20 -5 22 -10 24 -48 1 -15 7 -20 27 -18 22 1 26 -2 21 -19 -2 -11 -10 -22
-17 -24 -14 -6 -7 -55 9 -66 6 -4 11 -20 12 -35 1 -15 5 -54 9 -85 5 -39 4
-58 -3 -58 -6 0 -13 6 -15 13 -4 7 -6 6 -6 -5 -1 -9 -4 -18 -8 -21 -5 -2 -2
-2 5 -1 9 3 11 -7 6 -35 -4 -24 -2 -41 5 -45 7 -5 11 2 11 18 0 17 6 26 16 26
11 0 14 -8 12 -27 -4 -34 -36 -83 -53 -83 -19 0 -25 -24 -25 -100 0 -60 -3
-72 -25 -94 -14 -14 -26 -33 -28 -43 -1 -10 -5 -22 -9 -28 -3 -5 -2 -19 2 -30
7 -17 9 -16 16 14 4 18 22 49 41 67 31 31 35 42 40 105 3 38 10 72 14 75 5 3
9 0 9 -5 0 -6 4 -11 10 -11 5 0 7 7 4 15 -7 18 12 20 23 3 16 -27 17 -31 8
-193 -11 -224 -13 -238 -26 -249 -32 -25 -49 -75 -49 -140 0 -75 -14 -85 -59
-42 -26 23 -80 46 -110 46 -13 -1 -13 -3 3 -15 19 -14 19 -15 -6 -15 -15 0
-30 -4 -33 -10 -3 -5 -13 -10 -22 -10 -8 0 -29 -6 -46 -14 -18 -8 -49 -22 -71
-30 -25 -11 -36 -21 -33 -30 3 -8 -13 -33 -38 -59 -23 -25 -50 -58 -60 -74
-20 -33 -76 -73 -105 -73 -11 0 -20 -4 -20 -10 0 -5 -14 -10 -31 -10 -17 0
-28 4 -24 10 3 6 2 10 -4 10 -5 0 -12 15 -16 33 -4 17 -13 46 -20 62 -7 17
-18 48 -25 70 -6 22 -15 49 -20 60 -29 70 -38 152 -19 186 5 11 7 19 3 19 -13
0 -33 -35 -34 -57 0 -19 -6 -23 -30 -23 -23 0 -30 5 -30 19 0 23 -16 37 -23
19 -2 -7 4 -29 14 -48 10 -19 21 -52 24 -74 5 -29 9 -36 18 -27 6 6 19 11 30
11 13 0 17 -6 15 -22 -2 -13 -7 -26 -13 -30 -5 -4 -1 -10 10 -14 11 -4 23 -12
27 -18 12 -18 -4 -70 -29 -98 -32 -33 -27 -62 5 -30 12 12 25 22 28 22 4 0 3
-37 -2 -82 -15 -149 -9 -213 27 -291 26 -57 32 -82 31 -136 0 -44 2 -59 8 -46
8 19 9 19 9 -2 1 -15 -5 -21 -18 -20 -11 0 -17 7 -14 17 2 8 -1 40 -6 70 l-10
55 2 -58 c1 -31 -1 -57 -5 -57 -5 0 -8 13 -8 29 0 16 -5 42 -11 58 -7 15 -16
48 -20 73 -27 152 -31 162 -57 155 l-24 -6 6 68 c3 37 8 102 12 143 3 41 8 78
10 81 2 4 -3 13 -12 20 -8 7 -14 8 -13 3 1 -5 0 -16 -4 -24 -3 -8 -8 -22 -11
-30 -3 -8 -4 19 0 60 l5 75 -20 -40 c-12 -21 -21 -49 -21 -61 0 -13 -4 -33 -9
-46 -7 -20 -15 -23 -50 -22 -34 1 -41 -3 -41 -18 0 -20 -16 -24 -24 -5 -3 6
-4 -1 -3 -18 1 -16 7 -30 12 -31 6 0 22 -4 37 -8 63 -18 6 -25 -185 -24 -200
1 -250 15 -67 18 52 2 109 6 125 10 l30 7 -28 11 c-16 7 -43 12 -60 12 -18 1
-52 6 -77 12 -25 5 -83 13 -129 17 -89 6 -115 23 -66 41 29 11 29 14 9 93 -4
16 -2 27 4 27 6 0 13 -8 15 -17 4 -14 5 -13 6 4 0 12 -4 25 -9 28 -8 5 -7 11
1 21 6 7 15 12 19 9 4 -2 16 2 26 10 10 8 26 15 35 15 9 0 20 10 23 23 8 27
73 71 80 54 2 -7 5 9 5 36 1 48 15 63 26 27 3 -11 10 -20 15 -20 5 0 7 -7 3
-15 -4 -11 9 -7 40 12 28 17 46 35 47 46 0 11 8 32 17 48 14 24 15 32 4 53 -7
13 -10 30 -6 37 6 9 3 10 -11 5 -41 -16 -74 -1 -74 33 0 25 2 26 40 23 22 -2
43 -8 46 -13 9 -15 54 -10 54 6 0 8 7 15 16 15 11 0 13 6 9 19 -3 11 -1 23 6
26 8 6 7 10 -2 16 -10 6 -11 9 -1 9 7 0 12 14 12 34 0 19 5 38 10 41 6 4 10 3
9 -2 -3 -19 2 -25 15 -14 10 8 16 8 24 -2 12 -15 72 -11 72 4 0 5 -3 8 -7 7
-10 -2 -49 9 -88 27 -34 15 -152 43 -207 49 -41 5 -74 24 -107 62 -12 14 -28
23 -36 20 -8 -3 -16 0 -19 7 -3 8 -5 6 -5 -3 -1 -19 36 -43 51 -34 7 5 9 -2 5
-22 -3 -16 -4 -23 -1 -16 8 17 27 15 20 -3 -4 -11 2 -15 23 -15 43 0 54 -20
34 -61 l-17 -34 -12 30 c-7 17 -13 24 -14 18 0 -18 -20 -16 -20 2 0 18 -17 20
-23 3 -3 -10 -7 -10 -20 1 -14 11 -17 11 -18 0 0 -8 -5 -3 -11 11 l-10 25 -10
-25 c-9 -24 -10 -24 -24 -6 -12 17 -14 18 -14 3 0 -34 -54 -9 -102 47 -17 20
-30 27 -41 23 -26 -10 -20 -27 10 -27 42 0 23 -8 -33 -13 -29 -3 -61 -10 -73
-16 -22 -12 -22 -14 -25 59 -1 18 -7 25 -21 26 -11 1 -28 4 -37 8 -21 10 -49
4 -48 -9 1 -5 10 -9 21 -8 10 2 19 -3 19 -10 0 -8 -13 -13 -37 -13 -20 0 -38
-5 -41 -12 -2 -6 -20 -14 -40 -18 -20 -4 -39 -10 -42 -14 -3 -5 -27 -6 -53 -3
-36 4 -47 9 -43 20 4 10 0 13 -12 11 -10 -2 -17 -13 -17 -28 0 -20 -8 -27 -40
-36 -27 -8 -32 -13 -17 -13 32 -1 27 -21 -5 -21 -16 0 -35 -5 -43 -10 -13 -9
-13 -11 0 -20 12 -7 12 -12 2 -22 -9 -9 -12 -9 -12 5 0 9 -7 17 -15 17 -8 0
-15 -9 -15 -20 0 -13 -7 -20 -20 -20 -16 0 -14 -5 15 -35 40 -39 42 -45 18
-45 -15 0 -16 -2 -3 -10 9 -6 17 -5 21 2 4 7 9 7 14 -1 3 -7 15 -9 26 -6 14 5
19 2 19 -10 0 -12 -5 -15 -16 -11 -24 9 -47 -13 -33 -30 8 -10 8 -14 0 -14 -6
0 -11 5 -11 11 0 6 -9 8 -22 3 -13 -4 -45 -6 -73 -5 -42 2 -48 0 -35 -11 8 -7
13 -12 11 -11 -2 2 -9 -2 -16 -7 -9 -7 -7 -26 5 -76 20 -78 38 -92 127 -98 32
-3 59 -9 61 -15 2 -6 9 -11 17 -11 7 0 18 -7 25 -15 7 -8 28 -15 47 -15 19 0
43 -5 54 -10 13 -7 19 -7 19 0 0 5 11 10 25 10 16 0 25 -6 25 -16 0 -10 6 -13
19 -9 10 3 24 -1 31 -10 7 -8 21 -15 31 -15 10 0 21 -4 24 -10 3 -5 11 -10 16
-10 6 0 8 4 5 9 -3 4 6 6 20 3 23 -4 23 -5 7 -19 -17 -13 -16 -14 5 -8 16 5
22 2 22 -9 0 -9 4 -16 9 -16 5 0 18 -3 28 -7 12 -4 10 0 -7 15 -14 12 -19 21
-12 22 6 0 12 7 12 15 0 20 14 19 31 -2 12 -15 12 -16 -3 -10 -22 8 -23 1 -4
-19 8 -8 24 -14 36 -14 17 0 21 4 15 18 -5 13 -3 14 6 5 17 -17 5 -29 -46 -47
-25 -8 -43 -11 -40 -5 4 5 1 9 -4 9 -6 0 -11 -7 -11 -15 0 -12 -16 -15 -77
-16 -43 -1 -93 -1 -110 0 -30 2 -50 -17 -20 -20 69 -6 96 -17 70 -26 -7 -3
-13 -9 -13 -14 0 -6 4 -8 9 -4 5 3 12 1 16 -5 3 -5 -1 -10 -9 -10 -9 0 -16 -4
-16 -10 0 -6 -37 -10 -90 -10 -88 0 -108 8 -72 29 9 6 12 11 6 11 -6 0 -10 12
-8 26 2 24 0 26 -34 22 -20 -3 -53 -1 -72 4 -19 5 -46 9 -59 9 -13 -1 -31 5
-39 11 -11 9 -56 12 -161 10 -182 -3 -214 2 -206 29 4 11 2 19 -4 19 -6 0 -11
-7 -11 -16 0 -8 -4 -13 -9 -9 -10 6 -15 -7 -27 -70 l-7 -40 -8 35 c-6 29 -14
469 -13 689 1 37 -2 48 -7 34 -4 -12 -9 -88 -10 -170 -3 -186 -9 -264 -20
-257 -16 9 -29 -45 -30 -119 0 -50 -3 -66 -9 -52 -8 18 -9 18 -9 2 -1 -10 -5
-15 -11 -12 -5 3 -10 33 -10 66 0 40 -4 58 -12 56 -8 -1 -11 15 -9 50 1 29 -2
94 -8 145 -5 51 -13 149 -16 218 -4 69 -10 159 -14 200 -7 72 -8 74 -20 45 -7
-16 -15 -45 -18 -65 -3 -19 -8 -835 -10 -1812 l-3 -1778 3200 0 3200 0 0 1835
c0 1090 -4 1835 -9 1835 -5 0 -7 -10 -3 -22 5 -19 2 -21 -28 -15 -18 4 -52 7
-76 7 -44 0 -60 14 -26 24 10 3 8 4 -7 3 -15 -1 -25 4 -26 13 -3 20 -79 100
-95 100 -8 0 -8 -6 1 -21 8 -15 8 -24 0 -32 -16 -16 -13 -25 9 -29 12 -2 20
-7 20 -12 -1 -5 4 -13 12 -18 10 -7 10 -11 1 -15 -7 -2 -13 -13 -13 -23 0 -19
-44 -33 -105 -34 -27 -1 -30 2 -28 29 2 17 3 49 3 71 0 30 5 44 16 48 9 4 14
9 11 12 -3 3 3 14 13 24 13 13 31 18 65 17 29 -1 49 3 54 12 6 9 11 10 15 2
11 -16 46 -13 46 4 0 15 46 20 123 15 l27 -2 0 71 c0 84 17 79 -182 55 -210
-24 -250 -36 -296 -85 -35 -38 -51 -92 -56 -194 -2 -38 -7 -77 -10 -86 -4 -10
-34 -22 -79 -31 -94 -21 -179 -61 -199 -96 -19 -33 -33 -236 -31 -452 2 -199
3 -204 70 -235 l54 -26 -3 -57 -3 -57 -160 -5 c-88 -3 -166 -1 -172 4 -7 5
-13 27 -13 50 0 62 -29 354 -51 506 -19 134 -20 135 -57 170 -52 48 -84 68
-118 72 -18 2 -30 10 -32 21 -5 23 29 20 40 -3 5 -12 7 -12 7 3 1 9 9 17 19
17 14 0 15 2 2 9 -8 6 -17 8 -21 6 -3 -3 -7 39 -8 93 -2 123 -7 150 -36 186
l-24 30 -213 -23 c-117 -12 -240 -24 -273 -27 -33 -3 -77 -7 -97 -9 -21 -3
-38 -1 -38 4 0 5 23 12 52 16 29 4 60 12 69 18 17 11 15 47 -3 47 -6 0 -7 7
-4 16 4 11 -1 18 -14 21 -12 3 -20 14 -20 27 0 12 -6 31 -14 42 -8 11 -17 46
-21 79 -7 64 -25 125 -36 125 -16 0 -39 -53 -39 -91 0 -23 -3 -40 -6 -36 -6 6
-22 134 -29 222 -4 56 -15 137 -22 155 -13 34 -21 94 -22 163 -1 26 -5 47 -11
47 -5 0 -7 -23 -5 -52 l4 -53 -9 45 c-5 25 -9 95 -9 156 -1 95 2 113 17 127
10 10 21 15 23 12 3 -2 5 4 6 13 2 31 9 49 26 75 9 15 17 31 17 37 0 5 10 10
23 11 43 1 82 10 85 20 2 5 8 9 14 9 17 0 98 43 98 52 0 4 6 8 14 8 8 0 17 11
20 25 9 34 26 22 26 -18 0 -18 5 -39 10 -47 8 -13 10 -12 10 3 0 10 5 15 10
12 6 -4 10 20 10 64 0 41 4 71 10 71 6 0 10 28 10 65 0 35 4 86 9 112 6 26 12
120 15 208 3 88 9 233 12 322 l7 162 256 3 c231 3 258 1 281 -15 14 -9 42 -29
63 -44 74 -52 199 -41 285 25 l44 34 272 -3 c149 -2 286 -6 305 -10 18 -4 45
-19 60 -33 15 -15 30 -23 34 -19 4 3 7 2 7 -4 0 -6 9 -13 20 -16 20 -5 20 0
20 224 l0 229 -3200 0 -3200 0 0 -654z m2170 -360 c-5 -22 -7 -44 -4 -48 3 -4
3 -8 0 -8 -2 0 -12 -3 -22 -7 -15 -5 -16 -2 -10 31 11 58 26 90 36 80 5 -5 5
-25 0 -48z m0 -112 c0 -8 -4 -12 -10 -9 -5 3 -10 10 -10 16 0 5 5 9 10 9 6 0
10 -7 10 -16z m90 -54 c0 -5 -6 -10 -14 -10 -8 0 -18 5 -21 10 -3 6 3 10 14
10 12 0 21 -4 21 -10z m-35 -50 c3 -5 1 -10 -4 -10 -6 0 -11 5 -11 10 0 6 2
10 4 10 3 0 8 -4 11 -10z m187 -167 c-6 -2 -10 -9 -6 -14 3 -5 -2 -9 -10 -9
-9 0 -16 4 -16 9 0 10 18 19 35 19 6 0 4 -2 -3 -5z m-232 -7 c0 -3 -4 -8 -10
-11 -5 -3 -10 -1 -10 4 0 6 5 11 10 11 6 0 10 -2 10 -4z m554 -34 c3 -5 -1 -9
-9 -9 -8 0 -15 4 -15 9 0 4 4 8 9 8 6 0 12 -4 15 -8z m1424 -30 c-3 -12 0 -19
9 -19 8 0 11 7 7 19 -3 12 0 18 10 18 9 0 16 -7 16 -15 0 -8 4 -15 9 -15 14 0
23 -106 22 -265 -2 -211 -6 -268 -20 -273 -6 -2 -9 -8 -6 -12 3 -5 3 -21 -1
-35 -6 -24 -7 -24 -20 -8 -12 16 -13 15 -14 -12 0 -16 -3 -64 -6 -105 -3 -41
-5 -84 -5 -95 0 -11 -3 -47 -6 -80 -5 -54 -7 -57 -15 -30 -4 17 -8 62 -8 100
1 148 -12 750 -16 754 -2 2 -281 3 -620 2 l-615 -2 3 23 3 23 599 0 c471 0
600 3 603 13 3 6 11 12 18 12 7 0 15 -6 18 -12 2 -8 9 -5 18 10 17 27 23 28
17 4z m-1493 -2 c3 -6 -1 -7 -9 -4 -18 7 -21 14 -7 14 6 0 13 -4 16 -10z m175
-20 c0 -5 -6 -10 -12 -11 -10 0 -10 -2 0 -6 17 -7 15 -43 -3 -43 -8 0 -15 5
-15 10 0 6 -9 10 -20 10 -11 0 -20 5 -20 10 0 6 -4 10 -10 10 -21 0 -9 -19 18
-28 26 -10 26 -10 -11 -11 -23 -1 -36 3 -32 9 3 6 1 10 -6 10 -20 0 26 38 52
43 43 8 59 7 59 -3z m-270 -24 c0 -3 -4 -8 -10 -11 -5 -3 -10 -1 -10 4 0 6 5
11 10 11 6 0 10 -2 10 -4z m1528 -98 l3 -38 -580 0 -580 0 -22 31 c-16 23 -19
33 -9 39 7 4 276 7 599 6 l586 -1 3 -37z m-1075 -108 c18 -1 19 -2 6 -10 -18
-11 -59 -2 -59 12 0 6 7 7 16 4 9 -3 25 -6 37 -6z m337 0 c16 -10 -11 -12
-135 -12 -111 1 -116 2 -110 12 8 13 225 13 245 0z m240 0 c0 -6 -35 -10 -85
-10 -50 0 -85 4 -85 10 0 6 35 10 85 10 50 0 85 -4 85 -10z m-520 -4 c0 -11
-19 -15 -25 -6 -3 5 1 10 9 10 9 0 16 -2 16 -4z m287 -190 c2 -1 -3 -20 -11
-42 l-15 -39 0 38 -1 37 -46 0 c-27 0 -43 4 -39 10 5 8 103 5 112 -4z m321
-11 c1 -11 -4 -29 -13 -40 -16 -20 -16 -20 -14 0 3 42 0 45 -46 45 -25 0 -45
5 -45 10 0 7 22 10 58 8 48 -3 57 -6 60 -23z m-222 -56 c3 -6 2 -15 -3 -20
-13 -13 -43 -1 -43 17 0 16 36 19 46 3z m145 -26 c-9 -16 -10 -14 -11 12 0 21
3 26 11 18 8 -8 8 -16 0 -30z m-674 -5 c-3 -8 -6 -5 -6 6 -1 11 2 17 5 13 3
-3 4 -12 1 -19z m28 -18 c3 -5 1 -10 -4 -10 -6 0 -11 5 -11 10 0 6 2 10 4 10
3 0 8 -4 11 -10z m503 -8 c2 -7 -7 -12 -22 -12 -27 0 -35 15 -13 23 17 7 30 3
35 -11z m522 -128 l99 -7 -3 -59 c-2 -32 -8 -64 -15 -71 -8 -8 -11 -8 -11 1 0
15 -207 16 -216 1 -3 -5 -9 -7 -14 -4 -4 3 -53 5 -108 6 l-101 1 -60 65 c-34
36 -61 66 -61 68 0 2 79 3 176 3 97 0 178 3 182 6 3 4 12 4 20 1 7 -3 58 -8
112 -11z m-1177 -69 c4 -8 2 -17 -3 -20 -6 -4 -10 3 -10 14 0 25 6 27 13 6z
m57 -55 c0 -5 -4 -10 -10 -10 -5 0 -10 5 -10 10 0 6 5 10 10 10 6 0 10 -4 10
-10z m33 -20 c3 -11 1 -20 -4 -20 -5 0 -9 9 -9 20 0 11 2 20 4 20 2 0 6 -9 9
-20z m27 16 c0 -3 -4 -8 -10 -11 -5 -3 -10 -1 -10 4 0 6 5 11 10 11 6 0 10 -2
10 -4z m835 -43 c50 0 104 -2 120 -3 28 -2 27 -3 -10 -11 -22 -4 -74 -8 -115
-8 -73 -1 -100 8 -100 34 0 7 3 7 8 0 4 -6 48 -11 97 -12z m675 7 c0 -5 -4
-10 -10 -10 -5 0 -10 5 -10 10 0 6 5 10 10 10 6 0 10 -4 10 -10z m-364 -55
c-1 -30 -5 -55 -10 -55 -5 0 -3 -7 4 -15 8 -10 10 -27 5 -48 -13 -61 -15 -90
-6 -101 7 -8 -21 -12 -100 -14 -60 -1 -109 0 -109 3 0 20 33 65 48 65 16 -1
16 -1 0 -14 -10 -7 -18 -15 -18 -18 0 -2 34 -4 75 -3 41 0 75 3 75 8 0 4 0 14
0 22 0 8 -4 15 -10 15 -5 0 -10 -7 -10 -15 0 -18 -11 -19 -29 -2 -11 10 -13
10 -7 0 5 -9 -1 -13 -17 -13 l-24 0 16 50 c14 47 17 50 48 50 18 0 33 -4 33
-10 0 -5 5 -10 12 -10 21 0 -17 31 -38 31 -42 1 -123 -14 -118 -22 2 -5 18 -6
34 -2 36 7 37 1 8 -27 -21 -19 -23 -20 -30 -3 -6 16 -7 16 -7 -2 -1 -11 -9
-28 -20 -37 -18 -15 -20 -14 -32 11 -8 14 -21 32 -29 38 -12 11 -13 14 -1 22
9 6 10 11 2 15 -6 4 -11 2 -11 -3 0 -21 -40 13 -50 43 -13 37 -13 39 2 34 7
-3 13 -13 13 -23 0 -18 22 -25 80 -29 11 0 22 -4 25 -7 3 -4 20 -4 38 -2 23 4
32 11 32 24 0 15 9 18 53 21 48 3 52 5 55 31 3 22 -1 27 -18 27 -29 0 -18 15
12 17 23 2 24 0 24 -52z m-1181 6 c-8 -13 -45 -15 -45 -2 0 5 10 11 23 13 27
5 31 3 22 -11z m-1 -167 c4 -10 2 -13 -7 -8 -9 6 -9 5 0 -7 8 -10 10 -34 6
-73 l-6 -59 -12 34 c-9 28 -9 36 4 47 12 9 12 15 3 24 -14 14 -16 58 -3 58 5
0 12 -7 15 -16z m2117 -150 c29 -26 54 -203 31 -218 -5 -3 -31 -2 -58 3 -27 4
-62 4 -78 0 -48 -13 -300 -20 -316 -9 -10 6 -11 10 -3 10 19 0 36 39 24 54 -6
7 -12 29 -15 49 -2 20 -7 45 -11 56 -5 16 -1 21 22 26 15 3 46 11 68 17 56 15
265 37 295 31 14 -2 32 -11 41 -19z m-2105 -121 c-11 -11 -19 6 -11 24 8 17 8
17 12 0 3 -10 2 -21 -1 -24z m-1489 -165 c-3 -8 -6 -5 -6 6 -1 11 2 17 5 13 3
-3 4 -12 1 -19z m-677 -62 c0 -3 -4 -8 -10 -11 -5 -3 -10 -1 -10 4 0 6 5 11
10 11 6 0 10 -2 10 -4z m-80 -170 c0 -3 -4 -8 -10 -11 -5 -3 -10 -1 -10 4 0 6
5 11 10 11 6 0 10 -2 10 -4z m60 -26 c0 -5 -7 -7 -15 -4 -8 4 -15 8 -15 10 0
2 7 4 15 4 8 0 15 -4 15 -10z m910 -30 c0 -5 -7 -10 -16 -10 -8 0 -12 5 -9 10
3 6 10 10 16 10 5 0 9 -4 9 -10z m-1330 -491 c0 -14 -17 -10 -23 5 -4 10 -1
13 9 9 7 -3 14 -9 14 -14z m1610 -15 c0 -8 -4 -12 -10 -9 -5 3 -10 10 -10 16
0 5 5 9 10 9 6 0 10 -7 10 -16z m-640 -5 c0 -5 -28 -9 -62 -9 -44 0 -58 3 -48
10 18 12 110 11 110 -1z m-873 -5 c-3 -3 -12 -4 -19 -1 -8 3 -5 6 6 6 11 1 17
-2 13 -5z m66 -1 c-7 -2 -21 -2 -30 0 -10 3 -4 5 12 5 17 0 24 -2 18 -5z m140
0 c-13 -2 -35 -2 -50 0 -16 2 -5 4 22 4 28 0 40 -2 28 -4z m514 1 c-3 -3 -12
-4 -19 -1 -8 3 -5 6 6 6 11 1 17 -2 13 -5z m893 -165 c0 -6 -4 -7 -10 -4 -5 3
-10 11 -10 16 0 6 5 7 10 4 6 -3 10 -11 10 -16z"/>
<path d="M3642 4200 c-10 -17 -10 -20 4 -20 9 0 14 -6 11 -12 -3 -10 17 -14
77 -16 90 -2 130 4 121 18 -3 6 0 10 7 10 8 0 6 5 -5 11 -9 6 -15 14 -12 20 4
5 -33 9 -92 9 -87 0 -100 -2 -111 -20z"/>
<path d="M4000 3970 l-35 -7 43 -2 c23 0 42 4 42 9 0 6 -3 9 -7 9 -5 -1 -24
-5 -43 -9z"/>
<path d="M3867 3913 c-11 -10 -8 -43 3 -43 6 0 10 11 10 25 0 26 -2 29 -13 18z"/>
<path d="M4650 3563 c0 -17 -2 -37 -3 -45 -2 -7 -2 -9 1 -4 2 4 8 2 13 -5 6
-10 9 -3 9 21 0 19 -5 42 -10 50 -7 11 -10 7 -10 -17z"/>
<path d="M2330 4850 c0 -5 5 -10 10 -10 6 0 10 5 10 10 0 6 -4 10 -10 10 -5 0
-10 -4 -10 -10z"/>
<path d="M2656 4845 c-3 -9 -11 -13 -17 -9 -8 5 -9 3 -4 -5 6 -10 11 -9 23 3
9 8 13 18 10 21 -3 3 -8 -1 -12 -10z"/>
<path d="M2688 4853 c7 -3 16 -2 19 1 4 3 -2 6 -13 5 -11 0 -14 -3 -6 -6z"/>
<path d="M2390 4786 c0 -4 5 -17 11 -28 8 -15 8 -22 -1 -28 -7 -4 -9 -13 -5
-20 6 -9 9 -9 16 1 14 22 11 55 -6 69 -8 7 -15 9 -15 6z"/>
<path d="M2523 4675 c-17 -19 -28 -35 -25 -35 4 0 0 -6 -9 -13 -8 -7 -20 -20
-26 -31 -9 -17 -11 -16 -24 12 l-14 31 -31 -30 c-25 -24 -39 -30 -65 -27 -31
3 -34 0 -37 -24 -3 -23 0 -27 14 -21 14 5 16 3 9 -18 -4 -13 -10 -49 -14 -79
-4 -39 -10 -54 -20 -52 -11 2 -12 -5 -6 -30 4 -18 7 -37 7 -43 0 -35 -15 -176
-23 -205 -5 -19 -9 -50 -9 -69 0 -33 -14 -97 -31 -136 -32 -78 -43 -183 -21
-220 3 -5 5 -28 3 -51 -2 -34 1 -42 17 -46 18 -5 19 -1 15 71 -3 55 3 110 21
198 14 67 28 164 31 215 16 255 22 293 55 342 16 23 33 60 39 83 9 34 17 44
39 49 44 9 73 27 68 40 -3 8 1 11 10 7 8 -3 14 1 14 10 0 8 7 17 15 20 11 5
45 66 45 83 0 12 -19 -1 -47 -31z"/>
<path d="M2596 4692 c-9 -10 -13 -21 -10 -24 3 -4 -8 -32 -24 -65 -37 -72 -58
-130 -50 -139 12 -11 26 6 38 44 7 20 16 41 21 47 14 15 10 -38 -6 -85 -8 -23
-15 -45 -15 -48 0 -13 85 9 104 27 12 12 29 21 38 21 9 0 18 9 21 21 3 12 10
18 15 15 6 -3 12 1 16 9 3 8 15 15 26 15 13 0 20 7 20 20 0 16 -7 20 -30 20
-18 0 -33 -6 -36 -15 -4 -8 -15 -15 -25 -15 -10 0 -19 -6 -19 -13 0 -8 -12
-20 -27 -28 -16 -8 -32 -20 -36 -26 -4 -7 -13 -13 -20 -13 -8 0 -8 3 -2 8 6 4
11 14 12 22 1 8 5 28 9 43 4 19 1 33 -9 45 -15 16 -15 20 1 47 28 46 32 63 18
74 -10 8 -17 6 -30 -7z"/>
<path d="M2332 4643 c-8 -17 -9 -30 -2 -37 12 -12 23 14 18 43 -3 19 -4 18
-16 -6z"/>
<path d="M2890 4565 c0 -8 4 -15 8 -15 5 0 9 7 9 15 0 8 -4 15 -9 15 -4 0 -8
-7 -8 -15z"/>
<path d="M2832 4448 c3 -7 13 -15 24 -17 10 -2 22 -8 26 -15 6 -8 8 -8 8 0 0
13 -17 28 -43 37 -13 5 -17 3 -15 -5z"/>
<path d="M2550 4395 c0 -8 2 -15 4 -15 2 0 6 7 10 15 3 8 1 15 -4 15 -6 0 -10
-7 -10 -15z"/>
<path d="M2543 4315 c0 -27 2 -38 4 -22 2 15 2 37 0 50 -2 12 -4 0 -4 -28z"/>
<path d="M2405 4340 c-3 -5 1 -10 10 -10 9 0 13 5 10 10 -3 6 -8 10 -10 10 -2
0 -7 -4 -10 -10z"/>
<path d="M2467 4243 c-2 -5 -2 -37 1 -72 4 -58 6 -63 18 -46 16 22 18 39 4 30
-9 -5 -15 33 -13 83 1 14 -4 16 -10 5z"/>
<path d="M2701 4204 c0 -11 3 -14 6 -6 3 7 2 16 -1 19 -3 4 -6 -2 -5 -13z"/>
<path d="M2530 4176 c0 -19 -4 -37 -8 -40 -7 -4 -8 -31 -3 -81 1 -13 7 -7 16
20 17 46 19 67 5 45 -6 -10 -7 2 -3 38 3 28 3 52 -1 52 -3 0 -6 -15 -6 -34z"/>
<path d="M4430 4170 c0 -5 5 -10 10 -10 6 0 10 5 10 10 0 6 -4 10 -10 10 -5 0
-10 -4 -10 -10z"/>
<path d="M2432 4140 c0 -14 2 -19 5 -12 2 6 2 18 0 25 -3 6 -5 1 -5 -13z"/>
<path d="M2690 4095 c0 -8 5 -15 10 -15 6 0 10 7 10 15 0 8 -4 15 -10 15 -5 0
-10 -7 -10 -15z"/>
<path d="M2506 4005 c-3 -8 -1 -15 4 -15 6 0 10 7 10 15 0 8 -2 15 -4 15 -2 0
-6 -7 -10 -15z"/>
<path d="M2396 3994 c-11 -8 -16 -14 -10 -14 13 0 39 18 34 24 -3 2 -14 -2
-24 -10z"/>
<path d="M2790 3935 c0 -8 4 -15 10 -15 5 0 7 7 4 15 -4 8 -8 15 -10 15 -2 0
-4 -7 -4 -15z"/>
<path d="M1370 3925 c0 -8 4 -15 8 -15 5 0 9 7 9 15 0 8 -4 15 -9 15 -4 0 -8
-7 -8 -15z"/>
<path d="M1451 3907 c-1 -19 3 -26 11 -21 8 5 9 -4 5 -32 -4 -23 -3 -33 2 -25
5 7 13 11 19 7 6 -3 13 -2 17 4 3 5 1 10 -4 10 -6 0 -11 6 -11 14 0 8 -6 21
-13 28 -8 7 -16 20 -20 28 -3 9 -6 3 -6 -13z"/>
<path d="M1400 3909 c0 -5 5 -7 10 -4 6 3 10 8 10 11 0 2 -4 4 -10 4 -5 0 -10
-5 -10 -11z"/>
<path d="M1155 3900 c-16 -4 -26 -8 -21 -9 5 0 5 -6 0 -13 -11 -15 -10 -32 0
-69 5 -19 16 -29 37 -33 16 -3 29 -12 29 -20 0 -10 6 -13 17 -9 11 4 13 8 5
11 -8 2 -3 11 13 24 14 11 22 24 19 30 -4 6 -2 8 3 5 6 -4 19 3 29 15 17 19
17 21 2 15 -15 -5 -18 0 -19 31 0 20 -3 31 -6 24 -2 -6 -10 -9 -16 -5 -16 10
-56 11 -92 3z"/>
<path d="M2786 3897 c-17 -12 -17 -15 -2 -29 9 -9 14 -23 11 -30 -4 -9 2 -14
15 -15 14 -1 19 4 17 18 -2 10 -8 24 -14 30 -6 6 -9 18 -6 25 6 17 2 18 -21 1z"/>
<path d="M1421 3874 c0 -11 3 -14 6 -6 3 7 2 16 -1 19 -3 4 -6 -2 -5 -13z"/>
<path d="M1312 3868 c5 -15 28 -18 29 -3 0 6 -7 12 -17 13 -10 3 -15 -1 -12
-10z"/>
<path d="M1700 3874 c0 -5 -4 -35 -10 -68 -7 -47 -6 -64 6 -85 14 -23 15 -24
11 -3 -3 12 -1 22 4 22 5 0 9 -7 9 -15 0 -8 5 -26 12 -40 18 -39 63 -17 97 48
8 16 20 26 28 23 7 -3 13 -1 13 4 0 6 -5 10 -11 10 -5 0 -7 5 -4 10 4 6 15 8
26 5 21 -7 27 10 7 18 -10 4 -9 8 2 16 12 8 5 15 -35 32 -52 23 -155 38 -155
23z"/>
<path d="M2010 3780 c-7 -158 -7 -170 4 -170 7 0 10 28 8 82 -4 138 -8 168
-12 88z"/>
<path d="M1370 3777 c0 -14 -3 -32 -6 -41 -4 -11 -1 -16 10 -16 10 0 16 -9 16
-22 0 -18 2 -20 9 -9 6 9 4 31 -4 59 -17 54 -25 64 -25 29z"/>
<path d="M6160 3781 c0 -10 50 -25 58 -16 8 7 1 11 -30 19 -16 3 -28 2 -28 -3z"/>
<path d="M41 3744 c0 -11 3 -14 6 -6 3 7 2 16 -1 19 -3 4 -6 -2 -5 -13z"/>
<path d="M6390 3711 c0 -11 -6 -22 -12 -24 -8 -3 -6 -6 5 -6 12 -1 17 7 17 24
0 14 -2 25 -5 25 -3 0 -5 -9 -5 -19z"/>
<path d="M1220 3710 c0 -5 7 -10 15 -10 8 0 15 5 15 10 0 6 -7 10 -15 10 -8 0
-15 -4 -15 -10z"/>
<path d="M2575 3701 c11 -5 40 -13 65 -19 25 -6 54 -14 65 -17 16 -6 17 -5 5
4 -8 6 -11 11 -5 11 5 0 5 4 -1 10 -5 5 -41 12 -79 15 -45 3 -63 2 -50 -4z"/>
<path d="M1456 3655 c4 -8 8 -15 10 -15 2 0 4 7 4 15 0 8 -4 15 -10 15 -5 0
-7 -7 -4 -15z"/>
<path d="M1089 3659 c-7 -46 -6 -59 6 -59 9 0 13 9 11 25 -2 21 -15 47 -17 34z"/>
<path d="M1281 3644 c0 -11 3 -14 6 -6 3 7 2 16 -1 19 -3 4 -6 -2 -5 -13z"/>
<path d="M1128 3603 c6 -2 18 -2 25 0 6 3 1 5 -13 5 -14 0 -19 -2 -12 -5z"/>
<path d="M2434 3554 c3 -9 6 -18 6 -20 0 -3 4 -3 10 1 11 7 2 35 -12 35 -6 0
-7 -7 -4 -16z"/>
<path d="M1220 3536 c0 -9 5 -16 10 -16 6 0 10 4 10 9 0 6 -4 13 -10 16 -5 3
-10 -1 -10 -9z"/>
<path d="M1271 3534 c0 -11 3 -14 6 -6 3 7 2 16 -1 19 -3 4 -6 -2 -5 -13z"/>
<path d="M1994 3408 c3 -13 6 -41 6 -62 0 -39 0 -39 20 -21 21 19 56 83 49 89
-2 2 -21 7 -43 10 -37 7 -38 6 -32 -16z"/>
<path d="M2095 3371 c-4 -17 -11 -31 -16 -31 -5 0 -9 -7 -9 -15 0 -8 -9 -31
-20 -50 -11 -20 -21 -47 -22 -61 -1 -13 -6 -24 -10 -24 -4 0 -8 -11 -8 -25 0
-18 5 -25 20 -25 23 0 70 44 71 68 2 58 13 107 30 136 16 27 24 32 47 29 23
-3 24 -2 7 5 -11 5 -34 13 -52 16 -29 7 -32 5 -38 -23z"/>
<path d="M2223 3355 c9 -7 17 -17 17 -24 0 -6 5 -11 10 -11 6 0 10 11 10 24 0
19 -5 24 -27 24 -24 0 -25 -2 -10 -13z"/>
<path d="M2484 3276 c-9 -20 -9 -26 3 -30 23 -9 24 -8 17 18 -5 21 -2 25 23
29 l28 4 -30 1 c-23 2 -33 -4 -41 -22z"/>
<path d="M2700 3289 c0 -5 5 -7 10 -4 6 3 10 8 10 11 0 2 -4 4 -10 4 -5 0 -10
-5 -10 -11z"/>
<path d="M1995 3279 c-4 -6 -5 -12 -2 -15 2 -3 7 2 10 11 7 17 1 20 -8 4z"/>
<path d="M2378 3243 c6 -2 18 -2 25 0 6 3 1 5 -13 5 -14 0 -19 -2 -12 -5z"/>
<path d="M2535 3220 c3 -5 11 -10 16 -10 6 0 7 5 4 10 -3 6 -11 10 -16 10 -6
0 -7 -4 -4 -10z"/>
<path d="M1931 3191 c-8 -5 -9 -11 -3 -15 5 -3 12 1 16 9 6 17 6 18 -13 6z"/>
<path d="M2600 3180 c20 -13 33 -13 25 0 -3 6 -14 10 -23 10 -15 0 -15 -2 -2
-10z"/>
<path d="M1905 3150 c3 -5 8 -10 11 -10 2 0 4 5 4 10 0 6 -5 10 -11 10 -5 0
-7 -4 -4 -10z"/>
<path d="M2140 3140 c-8 -5 -10 -10 -5 -10 6 0 17 5 25 10 8 5 11 10 5 10 -5
0 -17 -5 -25 -10z"/>
<path d="M280 2940 c0 -5 5 -10 10 -10 6 0 10 5 10 10 0 6 -4 10 -10 10 -5 0
-10 -4 -10 -10z"/>
<path d="M2371 2871 c-8 -5 -20 -7 -28 -4 -7 3 -13 -1 -13 -10 0 -12 6 -14 29
-7 16 4 38 13 48 19 17 10 17 10 -2 11 -11 0 -26 -4 -34 -9z"/>
<path d="M328 2863 c6 -2 18 -2 25 0 6 3 1 5 -13 5 -14 0 -19 -2 -12 -5z"/>
</g>
</svg>
